<svg xmlns="http://www.w3.org/2000/svg" width="31" height="30" viewBox="0 0 31 30">
  <metadata><?xpacket begin="﻿" id="W5M0MpCehiHzreSzNTczkc9d"?>
<x:xmpmeta xmlns:x="adobe:ns:meta/" x:xmptk="Adobe XMP Core 5.6-c138 79.159824, 2016/09/14-01:09:01        ">
   <rdf:RDF xmlns:rdf="http://www.w3.org/1999/02/22-rdf-syntax-ns#">
      <rdf:Description rdf:about=""/>
   </rdf:RDF>
</x:xmpmeta>
                                                                                                    
                                                                                                    
                                                                                                    
                                                                                                    
                                                                                                    
                                                                                                    
                                                                                                    
                                                                                                    
                                                                                                    
                                                                                                    
                                                                                                    
                                                                                                    
                                                                                                    
                                                                                                    
                                                                                                    
                                                                                                    
                                                                                                    
                                                                                                    
                                                                                                    
                                                                                                    
                           
<?xpacket end="w"?></metadata>
<defs>
    <style>
      .cls-1 {
        fill: #fff;
        fill-rule: evenodd;
      }
    </style>
  </defs>
  <path id="instagram.svg" class="cls-1" d="M1153.49,4511.01c-4.21,0-4.74.02-6.39,0.09a11.869,11.869,0,0,0-3.76.7,7.5,7.5,0,0,0-2.75,1.73,7.409,7.409,0,0,0-1.79,2.65,10.9,10.9,0,0,0-.72,3.64c-0.07,1.6-.09,2.11-0.09,6.18s0.02,4.58.09,6.18a10.847,10.847,0,0,0,.72,3.64,7.443,7.443,0,0,0,1.79,2.66,7.77,7.77,0,0,0,2.75,1.73,11.625,11.625,0,0,0,3.76.69c1.65,0.08,2.18.09,6.39,0.09s4.74-.01,6.39-0.09a11.748,11.748,0,0,0,3.77-.69,7.733,7.733,0,0,0,2.74-1.73,7.443,7.443,0,0,0,1.79-2.66,10.847,10.847,0,0,0,.72-3.64c0.07-1.6.09-2.11,0.09-6.18s-0.02-4.58-.09-6.18a10.9,10.9,0,0,0-.72-3.64,7.84,7.84,0,0,0-4.53-4.38,12,12,0,0,0-3.77-.7c-1.65-.07-2.18-0.09-6.39-0.09h0Zm-1.39,2.7h1.39c4.14,0,4.63.02,6.27,0.09a9.174,9.174,0,0,1,2.88.51,4.96,4.96,0,0,1,1.78,1.13,4.6,4.6,0,0,1,1.16,1.72,8.157,8.157,0,0,1,.53,2.78c0.07,1.58.09,2.06,0.09,6.06s-0.02,4.47-.09,6.06a8.157,8.157,0,0,1-.53,2.78,4.6,4.6,0,0,1-1.16,1.72,4.936,4.936,0,0,1-1.78,1.12,8.809,8.809,0,0,1-2.88.52c-1.64.07-2.13,0.09-6.27,0.09s-4.63-.02-6.26-0.09a8.809,8.809,0,0,1-2.88-.52,4.852,4.852,0,0,1-1.78-1.12,4.482,4.482,0,0,1-1.16-1.72,7.924,7.924,0,0,1-.54-2.79c-0.07-1.58-.09-2.05-0.09-6.05s0.02-4.48.09-6.06a7.8,7.8,0,0,1,.54-2.78,4.594,4.594,0,0,1,1.16-1.73,4.852,4.852,0,0,1,1.78-1.12,8.809,8.809,0,0,1,2.88-.52c1.43-.06,1.98-0.08,4.87-0.08h0Zm9.67,2.49a1.8,1.8,0,1,0,1.86,1.8,1.832,1.832,0,0,0-1.86-1.8h0Zm-8.28,2.11a7.7,7.7,0,1,0,7.96,7.69,7.831,7.831,0,0,0-7.96-7.69h0Zm0,2.7a5,5,0,1,1-5.17,4.99A5.077,5.077,0,0,1,1153.49,4521.01Z" transform="translate(-1138 -4511)"/>
</svg>
