<svg xmlns="http://www.w3.org/2000/svg" width="23" height="17" viewBox="0 0 23 17">
<defs>
  </defs>
  <path id="mail.svg" class="cls-1" d="M1007.21,4326H987.794a1.8,1.8,0,0,0-1.792,1.8v13.4a1.8,1.8,0,0,0,1.792,1.8h19.416a1.805,1.805,0,0,0,1.8-1.8v-13.4A1.805,1.805,0,0,0,1007.21,4326Zm-0.96,13.36a0.628,0.628,0,0,1,.03.88,0.593,0.593,0,0,1-.46.2,0.581,0.581,0,0,1-.42-0.17l-5.1-4.81-2.2,2.17a0.6,0.6,0,0,1-.433.17,0.586,0.586,0,0,1-.425-0.17l-2.518-2.37-5.105,5a0.614,0.614,0,0,1-.434.18,0.6,0.6,0,0,1-.444-0.19,0.624,0.624,0,0,1,.011-0.88l5.066-4.97-5.057-4.77a0.622,0.622,0,0,1,.849-0.91l8.049,7.6,7.734-7.59a0.628,0.628,0,0,1,.88.01,0.64,0.64,0,0,1-.01.89l-5.07,4.96Z" transform="translate(-986 -4326)"/>
</svg>
