<svg xmlns="http://www.w3.org/2000/svg" width="19" height="21" viewBox="0 0 19 21">
  <path id="phone.svg" class="cls-1" d="M786.675,4341.02l-4.276-3.58a0.881,0.881,0,0,0-1.176.03l-1.371,1.24a0.235,0.235,0,0,1-.08.06c-0.184.08-.987,0.12-3.6-2.94a15.128,15.128,0,0,1-2.147-3,1.2,1.2,0,0,1-.159-1.13l1.371-1.24a0.96,0.96,0,0,0,.176-1.2l-2.9-4.83a0.889,0.889,0,0,0-1.374-.2l-1.371,1.24c-1.535,1.4-2.1,3.68-1.585,6.43a16.986,16.986,0,0,0,3.88,7.66c3.775,4.42,8.721,6.46,12.027,4.95a4.926,4.926,0,0,0,1.236-.81l1.372-1.25a0.943,0.943,0,0,0,.311-0.72A0.957,0.957,0,0,0,786.675,4341.02Z" transform="translate(-768 -4324)"/>
</svg>
