<svg xmlns="http://www.w3.org/2000/svg" width="42" height="25" viewBox="0 0 42 25">
  <metadata><?xpacket begin="﻿" id="W5M0MpCehiHzreSzNTczkc9d"?>
<x:xmpmeta xmlns:x="adobe:ns:meta/" x:xmptk="Adobe XMP Core 5.6-c138 79.159824, 2016/09/14-01:09:01        ">
   <rdf:RDF xmlns:rdf="http://www.w3.org/1999/02/22-rdf-syntax-ns#">
      <rdf:Description rdf:about=""/>
   </rdf:RDF>
</x:xmpmeta>
                                                                                                    
                                                                                                    
                                                                                                    
                                                                                                    
                                                                                                    
                                                                                                    
                                                                                                    
                                                                                                    
                                                                                                    
                                                                                                    
                                                                                                    
                                                                                                    
                                                                                                    
                                                                                                    
                                                                                                    
                                                                                                    
                                                                                                    
                                                                                                    
                                                                                                    
                                                                                                    
                           
<?xpacket end="w"?></metadata>
<defs>
    <style>
      .cls-1 {
        fill: #fff;
        fill-rule: evenodd;
      }
    </style>
  </defs>
  <path id="tripadvisor.svg" class="cls-1" d="M1347,4512.99c-5.6,0-9.8,1.4-14,5.57h-7s0,2.08,2.8,2.78c-1.26,1.7-2.8,4.65-2.8,6.93,0,5.73,4.02,9.72,9.79,9.72a11.388,11.388,0,0,0,8.41-4.16l2.8,4.16,2.8-4.16a11.367,11.367,0,0,0,8.4,4.16c5.78,0,9.8-3.99,9.8-9.72,0-2.28-1.54-5.22-2.8-6.94,2.8-.7,2.8-2.78,2.8-2.78h-7c-4.2-4.17-8.4-5.56-14-5.56h0Zm0,1.39a16.828,16.828,0,0,1,11.2,4.17c-5.6,0-11.2,6.94-11.2,13.89,0-6.95-5.6-13.88-11.21-13.88a16.763,16.763,0,0,1,11.21-4.18h0Zm-11.21,6.95a6.945,6.945,0,1,1-7,6.94,6.972,6.972,0,0,1,7-6.94h0Zm22.41,0a6.945,6.945,0,1,1-7,6.94,6.972,6.972,0,0,1,7-6.94h0Zm-22.41,2.78a4.165,4.165,0,1,0,4.2,4.16,4.178,4.178,0,0,0-4.2-4.16h0Zm22.41,0a4.165,4.165,0,1,0,4.2,4.16,4.178,4.178,0,0,0-4.2-4.16h0Zm-22.41,1.38a2.785,2.785,0,1,1-2.8,2.78A2.8,2.8,0,0,1,1335.79,4525.49Zm22.41,0a2.785,2.785,0,1,1-2.8,2.78A2.8,2.8,0,0,1,1358.2,4525.49Zm-22.41,1.39a1.385,1.385,0,1,0,1.4,1.38A1.385,1.385,0,0,0,1335.79,4526.88Zm22.41,0a1.385,1.385,0,1,0,1.4,1.38A1.385,1.385,0,0,0,1358.2,4526.88Z" transform="translate(-1326 -4513)"/>
</svg>
