<svg xmlns="http://www.w3.org/2000/svg" width="31" height="18" viewBox="0 0 31 18">
  <metadata><?xpacket begin="﻿" id="W5M0MpCehiHzreSzNTczkc9d"?>
<x:xmpmeta xmlns:x="adobe:ns:meta/" x:xmptk="Adobe XMP Core 5.6-c138 79.159824, 2016/09/14-01:09:01        ">
   <rdf:RDF xmlns:rdf="http://www.w3.org/1999/02/22-rdf-syntax-ns#">
      <rdf:Description rdf:about=""/>
   </rdf:RDF>
</x:xmpmeta>
                                                                                                    
                                                                                                    
                                                                                                    
                                                                                                    
                                                                                                    
                                                                                                    
                                                                                                    
                                                                                                    
                                                                                                    
                                                                                                    
                                                                                                    
                                                                                                    
                                                                                                    
                                                                                                    
                                                                                                    
                                                                                                    
                                                                                                    
                                                                                                    
                                                                                                    
                                                                                                    
                           
<?xpacket end="w"?></metadata>
<defs>
    <style>
      .cls-1 {
        fill: #fff;
        fill-rule: evenodd;
      }
    </style>
  </defs>
  <path id="vk.svg" class="cls-1" d="M574.174,4533.74h1.853a1.551,1.551,0,0,0,.846-0.37,1.364,1.364,0,0,0,.254-0.82s-0.036-2.5,1.118-2.87c1.138-.37,2.6,2.42,4.147,3.49a2.907,2.907,0,0,0,2.06.63l4.141-.06s2.165-.13,1.138-1.85a13.809,13.809,0,0,0-3.078-3.58c-2.6-2.43-2.249-2.04.879-6.24,1.9-2.56,2.665-4.12,2.427-4.78-0.226-.64-1.627-0.47-1.627-0.47l-4.662.02a1.111,1.111,0,0,0-.6.11,1.306,1.306,0,0,0-.411.51,27.789,27.789,0,0,1-1.722,3.66c-2.075,3.55-2.9,3.74-3.245,3.52-0.789-.52-0.592-2.07-0.592-3.17,0-3.44.519-4.88-1.008-5.25a8.327,8.327,0,0,0-2.177-.22,10.185,10.185,0,0,0-3.867.4c-0.531.27-.94,0.85-0.69,0.88a2.072,2.072,0,0,1,1.375.7,4.53,4.53,0,0,1,.461,2.12s0.275,4.05-.641,4.56c-0.628.34-1.49-.36-3.341-3.58a29.9,29.9,0,0,1-1.664-3.48,1.366,1.366,0,0,0-.384-0.52,1.927,1.927,0,0,0-.716-0.29l-4.43.03a1.444,1.444,0,0,0-.909.31,0.967,0.967,0,0,0-.017.79s3.468,8.18,7.394,12.29a10.586,10.586,0,0,0,7.69,3.53h0Z" transform="translate(-559 -4516)"/>
</svg>
