<svg xmlns="http://www.w3.org/2000/svg" width="36" height="23" viewBox="0 0 36 23">
  <metadata><?xpacket begin="﻿" id="W5M0MpCehiHzreSzNTczkc9d"?>
<x:xmpmeta xmlns:x="adobe:ns:meta/" x:xmptk="Adobe XMP Core 5.6-c138 79.159824, 2016/09/14-01:09:01        ">
   <rdf:RDF xmlns:rdf="http://www.w3.org/1999/02/22-rdf-syntax-ns#">
      <rdf:Description rdf:about=""/>
   </rdf:RDF>
</x:xmpmeta>
                                                                                                    
                                                                                                    
                                                                                                    
                                                                                                    
                                                                                                    
                                                                                                    
                                                                                                    
                                                                                                    
                                                                                                    
                                                                                                    
                                                                                                    
                                                                                                    
                                                                                                    
                                                                                                    
                                                                                                    
                                                                                                    
                                                                                                    
                                                                                                    
                                                                                                    
                                                                                                    
                           
<?xpacket end="w"?></metadata>
<defs>
    <style>
      .cls-1 {
        fill: #fff;
        fill-rule: evenodd;
      }
    </style>
  </defs>
  <path id="youtube.svg" class="cls-1" d="M978.374,4518.7a4.411,4.411,0,0,0-3.893-3.24,197.859,197.859,0,0,0-26.968,0,4.41,4.41,0,0,0-3.891,3.24,48.624,48.624,0,0,0-.007,15.61,4.422,4.422,0,0,0,3.891,3.24,197.859,197.859,0,0,0,26.968,0,4.424,4.424,0,0,0,3.892-3.24A48.97,48.97,0,0,0,978.374,4518.7Zm-22.029,12.93v-10.92c3.817,1.83,7.607,3.64,11.448,5.47C963.964,4528.01,960.171,4529.81,956.345,4531.63Z" transform="translate(-943 -4515)"/>
</svg>
